solid OpenSCAD_Model
  facet normal 1 -0 0
    outer loop
      vertex 62 0 22
      vertex 62 44 0
      vertex 62 44 22
    endloop
  endfacet
  facet normal 1 0 0
    outer loop
      vertex 62 44 0
      vertex 62 0 22
      vertex 62 0 0
    endloop
  endfacet
  facet normal 0 0 1
    outer loop
      vertex 62 44 22
      vertex 60 42 22
      vertex 62 0 22
    endloop
  endfacet
  facet normal 0 0 1
    outer loop
      vertex 62 44 22
      vertex 2 42 22
      vertex 60 42 22
    endloop
  endfacet
  facet normal 0 0 1
    outer loop
      vertex 2 42 22
      vertex 0 44 22
      vertex 2 2 22
    endloop
  endfacet
  facet normal -0 0 1
    outer loop
      vertex 0 44 22
      vertex 2 42 22
      vertex 62 44 22
    endloop
  endfacet
  facet normal -0 0 1
    outer loop
      vertex 60 2 22
      vertex 62 0 22
      vertex 60 42 22
    endloop
  endfacet
  facet normal -0 0 1
    outer loop
      vertex 2 2 22
      vertex 62 0 22
      vertex 60 2 22
    endloop
  endfacet
  facet normal 0 0 1
    outer loop
      vertex 2 2 22
      vertex 0 0 22
      vertex 62 0 22
    endloop
  endfacet
  facet normal 0 0 1
    outer loop
      vertex 0 0 22
      vertex 2 2 22
      vertex 0 44 22
    endloop
  endfacet
  facet normal 0 0 -1
    outer loop
      vertex 62 0 0
      vertex 43.5 8 0
      vertex 62 44 0
    endloop
  endfacet
  facet normal 0 0 -1
    outer loop
      vertex 62 0 0
      vertex 41.5 8 0
      vertex 43.5 8 0
    endloop
  endfacet
  facet normal 0 0 -1
    outer loop
      vertex 41.5 8 0
      vertex 33 8 0
      vertex 41.5 36 0
    endloop
  endfacet
  facet normal 0 0 -1
    outer loop
      vertex 62 0 0
      vertex 33 8 0
      vertex 41.5 8 0
    endloop
  endfacet
  facet normal 0 0 -1
    outer loop
      vertex 62 0 0
      vertex 31 8 0
      vertex 33 8 0
    endloop
  endfacet
  facet normal 0 0 -1
    outer loop
      vertex 31 8 0
      vertex 22.5 8 0
      vertex 31 36 0
    endloop
  endfacet
  facet normal 0 0 -1
    outer loop
      vertex 0 0 0
      vertex 31 8 0
      vertex 62 0 0
    endloop
  endfacet
  facet normal -0 0 -1
    outer loop
      vertex 31 8 0
      vertex 0 0 0
      vertex 22.5 8 0
    endloop
  endfacet
  facet normal 0 0 -1
    outer loop
      vertex 20.5 8 0
      vertex 12 8 0
      vertex 20.5 36 0
    endloop
  endfacet
  facet normal -0 0 -1
    outer loop
      vertex 22.5 8 0
      vertex 0 0 0
      vertex 20.5 8 0
    endloop
  endfacet
  facet normal -0 0 -1
    outer loop
      vertex 20.5 8 0
      vertex 0 0 0
      vertex 12 8 0
    endloop
  endfacet
  facet normal -0 0 -1
    outer loop
      vertex 10 8 0
      vertex 0 0 0
      vertex 10 36 0
    endloop
  endfacet
  facet normal -0 0 -1
    outer loop
      vertex 12 8 0
      vertex 0 0 0
      vertex 10 8 0
    endloop
  endfacet
  facet normal 0 0 -1
    outer loop
      vertex 43.5 36 0
      vertex 62 44 0
      vertex 43.5 8 0
    endloop
  endfacet
  facet normal 0 0 -1
    outer loop
      vertex 41.5 36 0
      vertex 62 44 0
      vertex 43.5 36 0
    endloop
  endfacet
  facet normal 0 0 -1
    outer loop
      vertex 33 36 0
      vertex 41.5 36 0
      vertex 33 8 0
    endloop
  endfacet
  facet normal 0 0 -1
    outer loop
      vertex 33 36 0
      vertex 62 44 0
      vertex 41.5 36 0
    endloop
  endfacet
  facet normal 0 0 -1
    outer loop
      vertex 31 36 0
      vertex 62 44 0
      vertex 33 36 0
    endloop
  endfacet
  facet normal 0 0 -1
    outer loop
      vertex 22.5 36 0
      vertex 31 36 0
      vertex 22.5 8 0
    endloop
  endfacet
  facet normal 0 0 -1
    outer loop
      vertex 0 44 0
      vertex 31 36 0
      vertex 22.5 36 0
    endloop
  endfacet
  facet normal 0 0 -1
    outer loop
      vertex 0 44 0
      vertex 22.5 36 0
      vertex 20.5 36 0
    endloop
  endfacet
  facet normal 0 0 -1
    outer loop
      vertex 12 36 0
      vertex 20.5 36 0
      vertex 12 8 0
    endloop
  endfacet
  facet normal 0 0 -1
    outer loop
      vertex 0 44 0
      vertex 20.5 36 0
      vertex 12 36 0
    endloop
  endfacet
  facet normal 0 0 -1
    outer loop
      vertex 0 44 0
      vertex 12 36 0
      vertex 10 36 0
    endloop
  endfacet
  facet normal 0 0 -1
    outer loop
      vertex 31 36 0
      vertex 0 44 0
      vertex 62 44 0
    endloop
  endfacet
  facet normal 0 0 -1
    outer loop
      vertex 0 44 0
      vertex 10 36 0
      vertex 0 0 0
    endloop
  endfacet
  facet normal -1 0 0
    outer loop
      vertex 0 0 0
      vertex 0 44 22
      vertex 0 44 0
    endloop
  endfacet
  facet normal -1 -0 0
    outer loop
      vertex 0 44 22
      vertex 0 0 0
      vertex 0 0 22
    endloop
  endfacet
  facet normal 0 1 -0
    outer loop
      vertex 62 44 0
      vertex 0 44 22
      vertex 62 44 22
    endloop
  endfacet
  facet normal 0 1 0
    outer loop
      vertex 0 44 22
      vertex 62 44 0
      vertex 0 44 0
    endloop
  endfacet
  facet normal 0 -1 0
    outer loop
      vertex 14 0 12
      vertex 0 0 22
      vertex 4 0 12
    endloop
  endfacet
  facet normal 0 -1 0
    outer loop
      vertex 0 0 0
      vertex 4 0 12
      vertex 0 0 22
    endloop
  endfacet
  facet normal 0 -1 -0
    outer loop
      vertex 4 0 6
      vertex 0 0 0
      vertex 14 0 6
    endloop
  endfacet
  facet normal 0 -1 -0
    outer loop
      vertex 4 0 12
      vertex 0 0 0
      vertex 4 0 6
    endloop
  endfacet
  facet normal 0 -1 0
    outer loop
      vertex 0 0 22
      vertex 14 0 12
      vertex 62 0 22
    endloop
  endfacet
  facet normal 0 -1 0
    outer loop
      vertex 62 0 0
      vertex 14 0 12
      vertex 14 0 6
    endloop
  endfacet
  facet normal 0 -1 0
    outer loop
      vertex 62 0 0
      vertex 14 0 6
      vertex 0 0 0
    endloop
  endfacet
  facet normal 0 -1 0
    outer loop
      vertex 14 0 12
      vertex 62 0 0
      vertex 62 0 22
    endloop
  endfacet
  facet normal -1 0 0
    outer loop
      vertex 60 2 2
      vertex 60 42 22
      vertex 60 42 2
    endloop
  endfacet
  facet normal -1 -0 0
    outer loop
      vertex 60 42 22
      vertex 60 2 2
      vertex 60 2 22
    endloop
  endfacet
  facet normal 0 0 1
    outer loop
      vertex 60 42 2
      vertex 43.5 36 2
      vertex 60 2 2
    endloop
  endfacet
  facet normal 0 0 1
    outer loop
      vertex 60 42 2
      vertex 41.5 36 2
      vertex 43.5 36 2
    endloop
  endfacet
  facet normal 0 0 1
    outer loop
      vertex 41.5 36 2
      vertex 33 36 2
      vertex 41.5 8 2
    endloop
  endfacet
  facet normal 0 0 1
    outer loop
      vertex 60 42 2
      vertex 33 36 2
      vertex 41.5 36 2
    endloop
  endfacet
  facet normal 0 0 1
    outer loop
      vertex 60 42 2
      vertex 31 36 2
      vertex 33 36 2
    endloop
  endfacet
  facet normal 0 0 1
    outer loop
      vertex 31 36 2
      vertex 22.5 36 2
      vertex 31 8 2
    endloop
  endfacet
  facet normal -0 0 1
    outer loop
      vertex 2 42 2
      vertex 31 36 2
      vertex 60 42 2
    endloop
  endfacet
  facet normal 0 0 1
    outer loop
      vertex 31 36 2
      vertex 2 42 2
      vertex 22.5 36 2
    endloop
  endfacet
  facet normal 0 0 1
    outer loop
      vertex 20.5 36 2
      vertex 12 36 2
      vertex 20.5 8 2
    endloop
  endfacet
  facet normal 0 0 1
    outer loop
      vertex 22.5 36 2
      vertex 2 42 2
      vertex 20.5 36 2
    endloop
  endfacet
  facet normal 0 0 1
    outer loop
      vertex 20.5 36 2
      vertex 2 42 2
      vertex 12 36 2
    endloop
  endfacet
  facet normal 0 0 1
    outer loop
      vertex 10 36 2
      vertex 2 42 2
      vertex 10 8 2
    endloop
  endfacet
  facet normal 0 0 1
    outer loop
      vertex 12 36 2
      vertex 2 42 2
      vertex 10 36 2
    endloop
  endfacet
  facet normal -0 0 1
    outer loop
      vertex 43.5 8 2
      vertex 60 2 2
      vertex 43.5 36 2
    endloop
  endfacet
  facet normal -0 0 1
    outer loop
      vertex 41.5 8 2
      vertex 60 2 2
      vertex 43.5 8 2
    endloop
  endfacet
  facet normal 0 0 1
    outer loop
      vertex 33 8 2
      vertex 41.5 8 2
      vertex 33 36 2
    endloop
  endfacet
  facet normal -0 0 1
    outer loop
      vertex 33 8 2
      vertex 60 2 2
      vertex 41.5 8 2
    endloop
  endfacet
  facet normal -0 0 1
    outer loop
      vertex 31 8 2
      vertex 60 2 2
      vertex 33 8 2
    endloop
  endfacet
  facet normal 0 0 1
    outer loop
      vertex 22.5 8 2
      vertex 31 8 2
      vertex 22.5 36 2
    endloop
  endfacet
  facet normal 0 0 1
    outer loop
      vertex 2 2 2
      vertex 31 8 2
      vertex 22.5 8 2
    endloop
  endfacet
  facet normal 0 0 1
    outer loop
      vertex 2 2 2
      vertex 22.5 8 2
      vertex 20.5 8 2
    endloop
  endfacet
  facet normal 0 0 1
    outer loop
      vertex 12 8 2
      vertex 20.5 8 2
      vertex 12 36 2
    endloop
  endfacet
  facet normal 0 0 1
    outer loop
      vertex 2 2 2
      vertex 20.5 8 2
      vertex 12 8 2
    endloop
  endfacet
  facet normal 0 0 1
    outer loop
      vertex 2 2 2
      vertex 12 8 2
      vertex 10 8 2
    endloop
  endfacet
  facet normal 0 0 1
    outer loop
      vertex 31 8 2
      vertex 2 2 2
      vertex 60 2 2
    endloop
  endfacet
  facet normal 0 0 1
    outer loop
      vertex 2 2 2
      vertex 10 8 2
      vertex 2 42 2
    endloop
  endfacet
  facet normal 1 -0 0
    outer loop
      vertex 2 2 22
      vertex 2 42 2
      vertex 2 42 22
    endloop
  endfacet
  facet normal 1 0 0
    outer loop
      vertex 2 42 2
      vertex 2 2 22
      vertex 2 2 2
    endloop
  endfacet
  facet normal 0 -1 0
    outer loop
      vertex 2 42 2
      vertex 60 42 22
      vertex 2 42 22
    endloop
  endfacet
  facet normal 0 -1 -0
    outer loop
      vertex 60 42 22
      vertex 2 42 2
      vertex 60 42 2
    endloop
  endfacet
  facet normal 0 1 0
    outer loop
      vertex 60 2 22
      vertex 14 2 12
      vertex 2 2 22
    endloop
  endfacet
  facet normal 0 1 -0
    outer loop
      vertex 60 2 2
      vertex 14 2 12
      vertex 60 2 22
    endloop
  endfacet
  facet normal 0 1 0
    outer loop
      vertex 2 2 2
      vertex 14 2 6
      vertex 60 2 2
    endloop
  endfacet
  facet normal 0 1 0
    outer loop
      vertex 14 2 12
      vertex 60 2 2
      vertex 14 2 6
    endloop
  endfacet
  facet normal 0 1 -0
    outer loop
      vertex 4 2 12
      vertex 2 2 22
      vertex 14 2 12
    endloop
  endfacet
  facet normal 0 1 0
    outer loop
      vertex 2 2 2
      vertex 4 2 12
      vertex 4 2 6
    endloop
  endfacet
  facet normal 0 1 0
    outer loop
      vertex 4 2 12
      vertex 2 2 2
      vertex 2 2 22
    endloop
  endfacet
  facet normal 0 1 0
    outer loop
      vertex 14 2 6
      vertex 2 2 2
      vertex 4 2 6
    endloop
  endfacet
  facet normal -1 0 0
    outer loop
      vertex 12 8 0
      vertex 12 36 2
      vertex 12 36 0
    endloop
  endfacet
  facet normal -1 -0 0
    outer loop
      vertex 12 36 2
      vertex 12 8 0
      vertex 12 8 2
    endloop
  endfacet
  facet normal 1 -0 0
    outer loop
      vertex 10 8 2
      vertex 10 36 0
      vertex 10 36 2
    endloop
  endfacet
  facet normal 1 0 0
    outer loop
      vertex 10 36 0
      vertex 10 8 2
      vertex 10 8 0
    endloop
  endfacet
  facet normal 0 -1 0
    outer loop
      vertex 10 36 0
      vertex 12 36 2
      vertex 10 36 2
    endloop
  endfacet
  facet normal 0 -1 -0
    outer loop
      vertex 12 36 2
      vertex 10 36 0
      vertex 12 36 0
    endloop
  endfacet
  facet normal 0 1 -0
    outer loop
      vertex 12 8 0
      vertex 10 8 2
      vertex 12 8 2
    endloop
  endfacet
  facet normal 0 1 0
    outer loop
      vertex 10 8 2
      vertex 12 8 0
      vertex 10 8 0
    endloop
  endfacet
  facet normal -1 0 0
    outer loop
      vertex 22.5 8 0
      vertex 22.5 36 2
      vertex 22.5 36 0
    endloop
  endfacet
  facet normal -1 -0 0
    outer loop
      vertex 22.5 36 2
      vertex 22.5 8 0
      vertex 22.5 8 2
    endloop
  endfacet
  facet normal 1 -0 0
    outer loop
      vertex 20.5 8 2
      vertex 20.5 36 0
      vertex 20.5 36 2
    endloop
  endfacet
  facet normal 1 0 0
    outer loop
      vertex 20.5 36 0
      vertex 20.5 8 2
      vertex 20.5 8 0
    endloop
  endfacet
  facet normal 0 -1 0
    outer loop
      vertex 20.5 36 0
      vertex 22.5 36 2
      vertex 20.5 36 2
    endloop
  endfacet
  facet normal 0 -1 -0
    outer loop
      vertex 22.5 36 2
      vertex 20.5 36 0
      vertex 22.5 36 0
    endloop
  endfacet
  facet normal 0 1 -0
    outer loop
      vertex 22.5 8 0
      vertex 20.5 8 2
      vertex 22.5 8 2
    endloop
  endfacet
  facet normal 0 1 0
    outer loop
      vertex 20.5 8 2
      vertex 22.5 8 0
      vertex 20.5 8 0
    endloop
  endfacet
  facet normal -1 0 0
    outer loop
      vertex 33 8 0
      vertex 33 36 2
      vertex 33 36 0
    endloop
  endfacet
  facet normal -1 -0 0
    outer loop
      vertex 33 36 2
      vertex 33 8 0
      vertex 33 8 2
    endloop
  endfacet
  facet normal 1 -0 0
    outer loop
      vertex 31 8 2
      vertex 31 36 0
      vertex 31 36 2
    endloop
  endfacet
  facet normal 1 0 0
    outer loop
      vertex 31 36 0
      vertex 31 8 2
      vertex 31 8 0
    endloop
  endfacet
  facet normal 0 -1 0
    outer loop
      vertex 31 36 0
      vertex 33 36 2
      vertex 31 36 2
    endloop
  endfacet
  facet normal 0 -1 -0
    outer loop
      vertex 33 36 2
      vertex 31 36 0
      vertex 33 36 0
    endloop
  endfacet
  facet normal 0 1 -0
    outer loop
      vertex 33 8 0
      vertex 31 8 2
      vertex 33 8 2
    endloop
  endfacet
  facet normal 0 1 0
    outer loop
      vertex 31 8 2
      vertex 33 8 0
      vertex 31 8 0
    endloop
  endfacet
  facet normal -1 0 0
    outer loop
      vertex 43.5 8 0
      vertex 43.5 36 2
      vertex 43.5 36 0
    endloop
  endfacet
  facet normal -1 -0 0
    outer loop
      vertex 43.5 36 2
      vertex 43.5 8 0
      vertex 43.5 8 2
    endloop
  endfacet
  facet normal 1 -0 0
    outer loop
      vertex 41.5 8 2
      vertex 41.5 36 0
      vertex 41.5 36 2
    endloop
  endfacet
  facet normal 1 0 0
    outer loop
      vertex 41.5 36 0
      vertex 41.5 8 2
      vertex 41.5 8 0
    endloop
  endfacet
  facet normal 0 -1 0
    outer loop
      vertex 41.5 36 0
      vertex 43.5 36 2
      vertex 41.5 36 2
    endloop
  endfacet
  facet normal 0 -1 -0
    outer loop
      vertex 43.5 36 2
      vertex 41.5 36 0
      vertex 43.5 36 0
    endloop
  endfacet
  facet normal 0 1 -0
    outer loop
      vertex 43.5 8 0
      vertex 41.5 8 2
      vertex 43.5 8 2
    endloop
  endfacet
  facet normal 0 1 0
    outer loop
      vertex 41.5 8 2
      vertex 43.5 8 0
      vertex 41.5 8 0
    endloop
  endfacet
  facet normal -1 0 0
    outer loop
      vertex 14 0 6
      vertex 14 2 12
      vertex 14 2 6
    endloop
  endfacet
  facet normal -1 -0 0
    outer loop
      vertex 14 2 12
      vertex 14 0 6
      vertex 14 0 12
    endloop
  endfacet
  facet normal 0 0 -1
    outer loop
      vertex 4 0 12
      vertex 14 2 12
      vertex 14 0 12
    endloop
  endfacet
  facet normal -0 0 -1
    outer loop
      vertex 14 2 12
      vertex 4 0 12
      vertex 4 2 12
    endloop
  endfacet
  facet normal -0 0 1
    outer loop
      vertex 4 2 6
      vertex 14 0 6
      vertex 14 2 6
    endloop
  endfacet
  facet normal 0 0 1
    outer loop
      vertex 14 0 6
      vertex 4 2 6
      vertex 4 0 6
    endloop
  endfacet
  facet normal 1 -0 0
    outer loop
      vertex 4 0 12
      vertex 4 2 6
      vertex 4 2 12
    endloop
  endfacet
  facet normal 1 0 0
    outer loop
      vertex 4 2 6
      vertex 4 0 12
      vertex 4 0 6
    endloop
  endfacet
  facet normal -1 0 0
    outer loop
      vertex 12 -46 0
      vertex 12 -18 2
      vertex 12 -18 0
    endloop
  endfacet
  facet normal -1 -0 0
    outer loop
      vertex 12 -18 2
      vertex 12 -46 0
      vertex 12 -46 2
    endloop
  endfacet
  facet normal 1 -0 0
    outer loop
      vertex 10 -46 2
      vertex 10 -18 0
      vertex 10 -18 2
    endloop
  endfacet
  facet normal 1 0 0
    outer loop
      vertex 10 -18 0
      vertex 10 -46 2
      vertex 10 -46 0
    endloop
  endfacet
  facet normal 0 -1 0
    outer loop
      vertex 10 -18 0
      vertex 12 -18 2
      vertex 10 -18 2
    endloop
  endfacet
  facet normal 0 -1 -0
    outer loop
      vertex 12 -18 2
      vertex 10 -18 0
      vertex 12 -18 0
    endloop
  endfacet
  facet normal 0 1 -0
    outer loop
      vertex 12 -46 0
      vertex 10 -46 2
      vertex 12 -46 2
    endloop
  endfacet
  facet normal 0 1 0
    outer loop
      vertex 10 -46 2
      vertex 12 -46 0
      vertex 10 -46 0
    endloop
  endfacet
  facet normal -1 0 0
    outer loop
      vertex 22.5 -46 0
      vertex 22.5 -18 2
      vertex 22.5 -18 0
    endloop
  endfacet
  facet normal -1 -0 0
    outer loop
      vertex 22.5 -18 2
      vertex 22.5 -46 0
      vertex 22.5 -46 2
    endloop
  endfacet
  facet normal 1 -0 0
    outer loop
      vertex 20.5 -46 2
      vertex 20.5 -18 0
      vertex 20.5 -18 2
    endloop
  endfacet
  facet normal 1 0 0
    outer loop
      vertex 20.5 -18 0
      vertex 20.5 -46 2
      vertex 20.5 -46 0
    endloop
  endfacet
  facet normal 0 -1 0
    outer loop
      vertex 20.5 -18 0
      vertex 22.5 -18 2
      vertex 20.5 -18 2
    endloop
  endfacet
  facet normal 0 -1 -0
    outer loop
      vertex 22.5 -18 2
      vertex 20.5 -18 0
      vertex 22.5 -18 0
    endloop
  endfacet
  facet normal 0 1 -0
    outer loop
      vertex 22.5 -46 0
      vertex 20.5 -46 2
      vertex 22.5 -46 2
    endloop
  endfacet
  facet normal 0 1 0
    outer loop
      vertex 20.5 -46 2
      vertex 22.5 -46 0
      vertex 20.5 -46 0
    endloop
  endfacet
  facet normal -1 0 0
    outer loop
      vertex 33 -46 0
      vertex 33 -18 2
      vertex 33 -18 0
    endloop
  endfacet
  facet normal -1 -0 0
    outer loop
      vertex 33 -18 2
      vertex 33 -46 0
      vertex 33 -46 2
    endloop
  endfacet
  facet normal 1 -0 0
    outer loop
      vertex 31 -46 2
      vertex 31 -18 0
      vertex 31 -18 2
    endloop
  endfacet
  facet normal 1 0 0
    outer loop
      vertex 31 -18 0
      vertex 31 -46 2
      vertex 31 -46 0
    endloop
  endfacet
  facet normal 0 -1 0
    outer loop
      vertex 31 -18 0
      vertex 33 -18 2
      vertex 31 -18 2
    endloop
  endfacet
  facet normal 0 -1 -0
    outer loop
      vertex 33 -18 2
      vertex 31 -18 0
      vertex 33 -18 0
    endloop
  endfacet
  facet normal 0 1 -0
    outer loop
      vertex 33 -46 0
      vertex 31 -46 2
      vertex 33 -46 2
    endloop
  endfacet
  facet normal 0 1 0
    outer loop
      vertex 31 -46 2
      vertex 33 -46 0
      vertex 31 -46 0
    endloop
  endfacet
  facet normal -1 0 0
    outer loop
      vertex 43.5 -46 0
      vertex 43.5 -18 2
      vertex 43.5 -18 0
    endloop
  endfacet
  facet normal -1 -0 0
    outer loop
      vertex 43.5 -18 2
      vertex 43.5 -46 0
      vertex 43.5 -46 2
    endloop
  endfacet
  facet normal 1 -0 0
    outer loop
      vertex 41.5 -46 2
      vertex 41.5 -18 0
      vertex 41.5 -18 2
    endloop
  endfacet
  facet normal 1 0 0
    outer loop
      vertex 41.5 -18 0
      vertex 41.5 -46 2
      vertex 41.5 -46 0
    endloop
  endfacet
  facet normal 0 -1 0
    outer loop
      vertex 41.5 -18 0
      vertex 43.5 -18 2
      vertex 41.5 -18 2
    endloop
  endfacet
  facet normal 0 -1 -0
    outer loop
      vertex 43.5 -18 2
      vertex 41.5 -18 0
      vertex 43.5 -18 0
    endloop
  endfacet
  facet normal 0 1 -0
    outer loop
      vertex 43.5 -46 0
      vertex 41.5 -46 2
      vertex 43.5 -46 2
    endloop
  endfacet
  facet normal 0 1 0
    outer loop
      vertex 41.5 -46 2
      vertex 43.5 -46 0
      vertex 41.5 -46 0
    endloop
  endfacet
  facet normal 1 -0 0
    outer loop
      vertex 62 -54 2
      vertex 62 -10 0
      vertex 62 -10 2
    endloop
  endfacet
  facet normal 1 0 0
    outer loop
      vertex 62 -10 0
      vertex 62 -54 2
      vertex 62 -54 0
    endloop
  endfacet
  facet normal 0 0 1
    outer loop
      vertex 58 -14 2
      vertex 43.5 -18 2
      vertex 58 -50 2
    endloop
  endfacet
  facet normal 0 0 1
    outer loop
      vertex 58 -14 2
      vertex 41.5 -18 2
      vertex 43.5 -18 2
    endloop
  endfacet
  facet normal 0 0 1
    outer loop
      vertex 41.5 -18 2
      vertex 33 -18 2
      vertex 41.5 -46 2
    endloop
  endfacet
  facet normal 0 0 1
    outer loop
      vertex 58 -14 2
      vertex 33 -18 2
      vertex 41.5 -18 2
    endloop
  endfacet
  facet normal 0 0 1
    outer loop
      vertex 58 -14 2
      vertex 31 -18 2
      vertex 33 -18 2
    endloop
  endfacet
  facet normal 0 0 1
    outer loop
      vertex 31 -18 2
      vertex 22.5 -18 2
      vertex 31 -46 2
    endloop
  endfacet
  facet normal -0 0 1
    outer loop
      vertex 4 -14 2
      vertex 31 -18 2
      vertex 58 -14 2
    endloop
  endfacet
  facet normal 0 0 1
    outer loop
      vertex 31 -18 2
      vertex 4 -14 2
      vertex 22.5 -18 2
    endloop
  endfacet
  facet normal 0 0 1
    outer loop
      vertex 20.5 -18 2
      vertex 12 -18 2
      vertex 20.5 -46 2
    endloop
  endfacet
  facet normal 0 0 1
    outer loop
      vertex 22.5 -18 2
      vertex 4 -14 2
      vertex 20.5 -18 2
    endloop
  endfacet
  facet normal 0 0 1
    outer loop
      vertex 20.5 -18 2
      vertex 4 -14 2
      vertex 12 -18 2
    endloop
  endfacet
  facet normal 0 0 1
    outer loop
      vertex 10 -18 2
      vertex 4 -14 2
      vertex 10 -46 2
    endloop
  endfacet
  facet normal 0 0 1
    outer loop
      vertex 12 -18 2
      vertex 4 -14 2
      vertex 10 -18 2
    endloop
  endfacet
  facet normal -0 0 1
    outer loop
      vertex 43.5 -46 2
      vertex 58 -50 2
      vertex 43.5 -18 2
    endloop
  endfacet
  facet normal -0 0 1
    outer loop
      vertex 41.5 -46 2
      vertex 58 -50 2
      vertex 43.5 -46 2
    endloop
  endfacet
  facet normal 0 0 1
    outer loop
      vertex 33 -46 2
      vertex 41.5 -46 2
      vertex 33 -18 2
    endloop
  endfacet
  facet normal -0 0 1
    outer loop
      vertex 33 -46 2
      vertex 58 -50 2
      vertex 41.5 -46 2
    endloop
  endfacet
  facet normal -0 0 1
    outer loop
      vertex 31 -46 2
      vertex 58 -50 2
      vertex 33 -46 2
    endloop
  endfacet
  facet normal 0 0 1
    outer loop
      vertex 22.5 -46 2
      vertex 31 -46 2
      vertex 22.5 -18 2
    endloop
  endfacet
  facet normal 0 0 1
    outer loop
      vertex 4 -50 2
      vertex 31 -46 2
      vertex 22.5 -46 2
    endloop
  endfacet
  facet normal 0 0 1
    outer loop
      vertex 4 -50 2
      vertex 22.5 -46 2
      vertex 20.5 -46 2
    endloop
  endfacet
  facet normal 0 0 1
    outer loop
      vertex 12 -46 2
      vertex 20.5 -46 2
      vertex 12 -18 2
    endloop
  endfacet
  facet normal 0 0 1
    outer loop
      vertex 4 -50 2
      vertex 20.5 -46 2
      vertex 12 -46 2
    endloop
  endfacet
  facet normal 0 0 1
    outer loop
      vertex 4 -50 2
      vertex 12 -46 2
      vertex 10 -46 2
    endloop
  endfacet
  facet normal 0 0 1
    outer loop
      vertex 31 -46 2
      vertex 4 -50 2
      vertex 58 -50 2
    endloop
  endfacet
  facet normal 0 0 1
    outer loop
      vertex 4 -50 2
      vertex 10 -46 2
      vertex 4 -14 2
    endloop
  endfacet
  facet normal 0 0 1
    outer loop
      vertex 62 -10 2
      vertex 60 -12 2
      vertex 62 -54 2
    endloop
  endfacet
  facet normal 0 0 1
    outer loop
      vertex 62 -10 2
      vertex 2 -12 2
      vertex 60 -12 2
    endloop
  endfacet
  facet normal 0 0 1
    outer loop
      vertex 2 -12 2
      vertex 0 -10 2
      vertex 2 -52 2
    endloop
  endfacet
  facet normal -0 0 1
    outer loop
      vertex 0 -10 2
      vertex 2 -12 2
      vertex 62 -10 2
    endloop
  endfacet
  facet normal -0 0 1
    outer loop
      vertex 60 -52 2
      vertex 62 -54 2
      vertex 60 -12 2
    endloop
  endfacet
  facet normal -0 0 1
    outer loop
      vertex 2 -52 2
      vertex 62 -54 2
      vertex 60 -52 2
    endloop
  endfacet
  facet normal 0 0 1
    outer loop
      vertex 2 -52 2
      vertex 0 -54 2
      vertex 62 -54 2
    endloop
  endfacet
  facet normal 0 0 1
    outer loop
      vertex 0 -54 2
      vertex 2 -52 2
      vertex 0 -10 2
    endloop
  endfacet
  facet normal 0 0 -1
    outer loop
      vertex 62 -54 0
      vertex 43.5 -46 0
      vertex 62 -10 0
    endloop
  endfacet
  facet normal 0 0 -1
    outer loop
      vertex 62 -54 0
      vertex 41.5 -46 0
      vertex 43.5 -46 0
    endloop
  endfacet
  facet normal 0 0 -1
    outer loop
      vertex 41.5 -46 0
      vertex 33 -46 0
      vertex 41.5 -18 0
    endloop
  endfacet
  facet normal 0 0 -1
    outer loop
      vertex 62 -54 0
      vertex 33 -46 0
      vertex 41.5 -46 0
    endloop
  endfacet
  facet normal 0 0 -1
    outer loop
      vertex 62 -54 0
      vertex 31 -46 0
      vertex 33 -46 0
    endloop
  endfacet
  facet normal 0 0 -1
    outer loop
      vertex 31 -46 0
      vertex 22.5 -46 0
      vertex 31 -18 0
    endloop
  endfacet
  facet normal 0 0 -1
    outer loop
      vertex 0 -54 0
      vertex 31 -46 0
      vertex 62 -54 0
    endloop
  endfacet
  facet normal -0 0 -1
    outer loop
      vertex 31 -46 0
      vertex 0 -54 0
      vertex 22.5 -46 0
    endloop
  endfacet
  facet normal 0 0 -1
    outer loop
      vertex 20.5 -46 0
      vertex 12 -46 0
      vertex 20.5 -18 0
    endloop
  endfacet
  facet normal -0 0 -1
    outer loop
      vertex 22.5 -46 0
      vertex 0 -54 0
      vertex 20.5 -46 0
    endloop
  endfacet
  facet normal -0 0 -1
    outer loop
      vertex 20.5 -46 0
      vertex 0 -54 0
      vertex 12 -46 0
    endloop
  endfacet
  facet normal -0 0 -1
    outer loop
      vertex 10 -46 0
      vertex 0 -54 0
      vertex 10 -18 0
    endloop
  endfacet
  facet normal -0 0 -1
    outer loop
      vertex 12 -46 0
      vertex 0 -54 0
      vertex 10 -46 0
    endloop
  endfacet
  facet normal 0 0 -1
    outer loop
      vertex 43.5 -18 0
      vertex 62 -10 0
      vertex 43.5 -46 0
    endloop
  endfacet
  facet normal 0 0 -1
    outer loop
      vertex 41.5 -18 0
      vertex 62 -10 0
      vertex 43.5 -18 0
    endloop
  endfacet
  facet normal 0 0 -1
    outer loop
      vertex 33 -18 0
      vertex 41.5 -18 0
      vertex 33 -46 0
    endloop
  endfacet
  facet normal 0 0 -1
    outer loop
      vertex 33 -18 0
      vertex 62 -10 0
      vertex 41.5 -18 0
    endloop
  endfacet
  facet normal 0 0 -1
    outer loop
      vertex 31 -18 0
      vertex 62 -10 0
      vertex 33 -18 0
    endloop
  endfacet
  facet normal 0 0 -1
    outer loop
      vertex 22.5 -18 0
      vertex 31 -18 0
      vertex 22.5 -46 0
    endloop
  endfacet
  facet normal 0 0 -1
    outer loop
      vertex 0 -10 0
      vertex 31 -18 0
      vertex 22.5 -18 0
    endloop
  endfacet
  facet normal 0 0 -1
    outer loop
      vertex 0 -10 0
      vertex 22.5 -18 0
      vertex 20.5 -18 0
    endloop
  endfacet
  facet normal 0 0 -1
    outer loop
      vertex 12 -18 0
      vertex 20.5 -18 0
      vertex 12 -46 0
    endloop
  endfacet
  facet normal 0 0 -1
    outer loop
      vertex 0 -10 0
      vertex 20.5 -18 0
      vertex 12 -18 0
    endloop
  endfacet
  facet normal 0 0 -1
    outer loop
      vertex 0 -10 0
      vertex 12 -18 0
      vertex 10 -18 0
    endloop
  endfacet
  facet normal 0 0 -1
    outer loop
      vertex 31 -18 0
      vertex 0 -10 0
      vertex 62 -10 0
    endloop
  endfacet
  facet normal 0 0 -1
    outer loop
      vertex 0 -10 0
      vertex 10 -18 0
      vertex 0 -54 0
    endloop
  endfacet
  facet normal -1 0 0
    outer loop
      vertex 0 -54 0
      vertex 0 -10 2
      vertex 0 -10 0
    endloop
  endfacet
  facet normal -1 -0 0
    outer loop
      vertex 0 -10 2
      vertex 0 -54 0
      vertex 0 -54 2
    endloop
  endfacet
  facet normal 0 1 -0
    outer loop
      vertex 62 -10 0
      vertex 0 -10 2
      vertex 62 -10 2
    endloop
  endfacet
  facet normal 0 1 0
    outer loop
      vertex 0 -10 2
      vertex 62 -10 0
      vertex 0 -10 0
    endloop
  endfacet
  facet normal 0 -1 0
    outer loop
      vertex 0 -54 0
      vertex 62 -54 2
      vertex 0 -54 2
    endloop
  endfacet
  facet normal 0 -1 -0
    outer loop
      vertex 62 -54 2
      vertex 0 -54 0
      vertex 62 -54 0
    endloop
  endfacet
  facet normal 1 -0 0
    outer loop
      vertex 60 -52 4
      vertex 60 -12 2
      vertex 60 -12 4
    endloop
  endfacet
  facet normal 1 0 0
    outer loop
      vertex 60 -12 2
      vertex 60 -52 4
      vertex 60 -52 2
    endloop
  endfacet
  facet normal 0 0 1
    outer loop
      vertex 60 -12 4
      vertex 58 -14 4
      vertex 60 -52 4
    endloop
  endfacet
  facet normal 0 0 1
    outer loop
      vertex 60 -12 4
      vertex 4 -14 4
      vertex 58 -14 4
    endloop
  endfacet
  facet normal 0 0 1
    outer loop
      vertex 4 -14 4
      vertex 2 -12 4
      vertex 4 -50 4
    endloop
  endfacet
  facet normal -0 0 1
    outer loop
      vertex 2 -12 4
      vertex 4 -14 4
      vertex 60 -12 4
    endloop
  endfacet
  facet normal -0 0 1
    outer loop
      vertex 58 -50 4
      vertex 60 -52 4
      vertex 58 -14 4
    endloop
  endfacet
  facet normal -0 0 1
    outer loop
      vertex 4 -50 4
      vertex 60 -52 4
      vertex 58 -50 4
    endloop
  endfacet
  facet normal 0 0 1
    outer loop
      vertex 4 -50 4
      vertex 2 -52 4
      vertex 60 -52 4
    endloop
  endfacet
  facet normal 0 0 1
    outer loop
      vertex 2 -52 4
      vertex 4 -50 4
      vertex 2 -12 4
    endloop
  endfacet
  facet normal -1 0 0
    outer loop
      vertex 2 -52 2
      vertex 2 -12 4
      vertex 2 -12 2
    endloop
  endfacet
  facet normal -1 -0 0
    outer loop
      vertex 2 -12 4
      vertex 2 -52 2
      vertex 2 -52 4
    endloop
  endfacet
  facet normal 0 1 -0
    outer loop
      vertex 60 -12 2
      vertex 2 -12 4
      vertex 60 -12 4
    endloop
  endfacet
  facet normal 0 1 0
    outer loop
      vertex 2 -12 4
      vertex 60 -12 2
      vertex 2 -12 2
    endloop
  endfacet
  facet normal 0 -1 0
    outer loop
      vertex 2 -52 2
      vertex 60 -52 4
      vertex 2 -52 4
    endloop
  endfacet
  facet normal 0 -1 -0
    outer loop
      vertex 60 -52 4
      vertex 2 -52 2
      vertex 60 -52 2
    endloop
  endfacet
  facet normal -1 0 0
    outer loop
      vertex 58 -50 2
      vertex 58 -14 4
      vertex 58 -14 2
    endloop
  endfacet
  facet normal -1 -0 0
    outer loop
      vertex 58 -14 4
      vertex 58 -50 2
      vertex 58 -50 4
    endloop
  endfacet
  facet normal 1 -0 0
    outer loop
      vertex 4 -50 4
      vertex 4 -14 2
      vertex 4 -14 4
    endloop
  endfacet
  facet normal 1 0 0
    outer loop
      vertex 4 -14 2
      vertex 4 -50 4
      vertex 4 -50 2
    endloop
  endfacet
  facet normal 0 -1 0
    outer loop
      vertex 4 -14 2
      vertex 58 -14 4
      vertex 4 -14 4
    endloop
  endfacet
  facet normal 0 -1 -0
    outer loop
      vertex 58 -14 4
      vertex 4 -14 2
      vertex 58 -14 2
    endloop
  endfacet
  facet normal 0 1 -0
    outer loop
      vertex 58 -50 2
      vertex 4 -50 4
      vertex 58 -50 4
    endloop
  endfacet
  facet normal 0 1 0
    outer loop
      vertex 4 -50 4
      vertex 58 -50 2
      vertex 4 -50 2
    endloop
  endfacet
endsolid OpenSCAD_Model
