solid OpenSCAD_Model
  facet normal 1 -0 0
    outer loop
      vertex 30 0 22
      vertex 30 38 0
      vertex 30 38 22
    endloop
  endfacet
  facet normal 1 0 0
    outer loop
      vertex 30 38 0
      vertex 30 0 22
      vertex 30 0 0
    endloop
  endfacet
  facet normal 0 0 1
    outer loop
      vertex 30 38 22
      vertex 28 36 22
      vertex 30 0 22
    endloop
  endfacet
  facet normal 0 0 1
    outer loop
      vertex 30 38 22
      vertex 2 36 22
      vertex 28 36 22
    endloop
  endfacet
  facet normal 0 0 1
    outer loop
      vertex 2 36 22
      vertex 0 36 22
      vertex 2 2 22
    endloop
  endfacet
  facet normal -0 0 1
    outer loop
      vertex -3.5 38 22
      vertex 2 36 22
      vertex 30 38 22
    endloop
  endfacet
  facet normal 0 0 1
    outer loop
      vertex 2 36 22
      vertex -3.5 38 22
      vertex 0 36 22
    endloop
  endfacet
  facet normal 0 0 1
    outer loop
      vertex 0 36 22
      vertex -3.5 38 22
      vertex -1.5 36 22
    endloop
  endfacet
  facet normal 0 0 1
    outer loop
      vertex -3.5 28 22
      vertex -1.5 36 22
      vertex -3.5 38 22
    endloop
  endfacet
  facet normal 0 0 1
    outer loop
      vertex -1.5 36 22
      vertex -3.5 28 22
      vertex -1.5 28 22
    endloop
  endfacet
  facet normal -0 0 1
    outer loop
      vertex 28 2 22
      vertex 30 0 22
      vertex 28 36 22
    endloop
  endfacet
  facet normal -0 0 1
    outer loop
      vertex 2 2 22
      vertex 30 0 22
      vertex 28 2 22
    endloop
  endfacet
  facet normal 0 0 1
    outer loop
      vertex 2 2 22
      vertex 0 0 22
      vertex 30 0 22
    endloop
  endfacet
  facet normal 0 0 1
    outer loop
      vertex 0 0 22
      vertex 2 2 22
      vertex 0 36 22
    endloop
  endfacet
  facet normal 0 0 -1
    outer loop
      vertex -1.5 28 0
      vertex -3.5 28 0
      vertex -1.5 36 0
    endloop
  endfacet
  facet normal 0 0 -1
    outer loop
      vertex 0 0 0
      vertex 6 3 0
      vertex 6 0 0
    endloop
  endfacet
  facet normal 0 0 -1
    outer loop
      vertex 6 3 0
      vertex 4 8 0
      vertex 6 8 0
    endloop
  endfacet
  facet normal 0 0 -1
    outer loop
      vertex 0 36 0
      vertex 4 8 0
      vertex 0 0 0
    endloop
  endfacet
  facet normal -0 0 -1
    outer loop
      vertex 6 3 0
      vertex 0 0 0
      vertex 4 8 0
    endloop
  endfacet
  facet normal 0 0 -1
    outer loop
      vertex 17 3 0
      vertex 10.6667 8 0
      vertex 12.6667 8 0
    endloop
  endfacet
  facet normal 0 0 -1
    outer loop
      vertex 6 8 0
      vertex 10.6667 8 0
      vertex 6 3 0
    endloop
  endfacet
  facet normal 0 0 -1
    outer loop
      vertex 6 3 0
      vertex 10.6667 8 0
      vertex 17 3 0
    endloop
  endfacet
  facet normal 0 0 -1
    outer loop
      vertex 30 0 0
      vertex 26 8 0
      vertex 30 38 0
    endloop
  endfacet
  facet normal 0 0 -1
    outer loop
      vertex 30 0 0
      vertex 24 8 0
      vertex 26 8 0
    endloop
  endfacet
  facet normal 0 0 -1
    outer loop
      vertex 24 8 0
      vertex 19.3333 8 0
      vertex 24 30 0
    endloop
  endfacet
  facet normal 0 0 -1
    outer loop
      vertex 17 0 0
      vertex 24 8 0
      vertex 30 0 0
    endloop
  endfacet
  facet normal -0 0 -1
    outer loop
      vertex 24 8 0
      vertex 17 3 0
      vertex 19.3333 8 0
    endloop
  endfacet
  facet normal -0 0 -1
    outer loop
      vertex 19.3333 8 0
      vertex 17 3 0
      vertex 17.3333 8 0
    endloop
  endfacet
  facet normal 0 0 -1
    outer loop
      vertex 24 8 0
      vertex 17 0 0
      vertex 17 3 0
    endloop
  endfacet
  facet normal 0 0 -1
    outer loop
      vertex 26 30 0
      vertex 30 38 0
      vertex 26 8 0
    endloop
  endfacet
  facet normal 0 0 -1
    outer loop
      vertex 24 30 0
      vertex 30 38 0
      vertex 26 30 0
    endloop
  endfacet
  facet normal 0 0 -1
    outer loop
      vertex 19.3333 30 0
      vertex 24 30 0
      vertex 19.3333 8 0
    endloop
  endfacet
  facet normal 0 0 -1
    outer loop
      vertex 19.3333 30 0
      vertex 30 38 0
      vertex 24 30 0
    endloop
  endfacet
  facet normal 0 0 -1
    outer loop
      vertex 17.3333 30 0
      vertex 30 38 0
      vertex 19.3333 30 0
    endloop
  endfacet
  facet normal 0 0 -1
    outer loop
      vertex 12.6667 8 0
      vertex 17.3333 8 0
      vertex 17 3 0
    endloop
  endfacet
  facet normal 0 0 -1
    outer loop
      vertex 17.3333 8 0
      vertex 12.6667 8 0
      vertex 17.3333 30 0
    endloop
  endfacet
  facet normal 0 0 -1
    outer loop
      vertex 12.6667 30 0
      vertex 17.3333 30 0
      vertex 12.6667 8 0
    endloop
  endfacet
  facet normal 0 0 -1
    outer loop
      vertex 12.6667 30 0
      vertex 30 38 0
      vertex 17.3333 30 0
    endloop
  endfacet
  facet normal 0 0 -1
    outer loop
      vertex 0 36 0
      vertex 12.6667 30 0
      vertex 10.6667 30 0
    endloop
  endfacet
  facet normal 0 0 -1
    outer loop
      vertex 10.6667 8 0
      vertex 6 8 0
      vertex 10.6667 30 0
    endloop
  endfacet
  facet normal 0 0 -1
    outer loop
      vertex 6 30 0
      vertex 10.6667 30 0
      vertex 6 8 0
    endloop
  endfacet
  facet normal 0 0 -1
    outer loop
      vertex 0 36 0
      vertex 10.6667 30 0
      vertex 6 30 0
    endloop
  endfacet
  facet normal 0 0 -1
    outer loop
      vertex 0 36 0
      vertex 6 30 0
      vertex 4 30 0
    endloop
  endfacet
  facet normal 0 0 -1
    outer loop
      vertex 4 8 0
      vertex 0 36 0
      vertex 4 30 0
    endloop
  endfacet
  facet normal 0 0 -1
    outer loop
      vertex 12.6667 30 0
      vertex 0 36 0
      vertex 30 38 0
    endloop
  endfacet
  facet normal 0 0 -1
    outer loop
      vertex -3.5 38 0
      vertex 0 36 0
      vertex -1.5 36 0
    endloop
  endfacet
  facet normal 0 0 -1
    outer loop
      vertex 0 36 0
      vertex -3.5 38 0
      vertex 30 38 0
    endloop
  endfacet
  facet normal 0 0 -1
    outer loop
      vertex -3.5 38 0
      vertex -1.5 36 0
      vertex -3.5 28 0
    endloop
  endfacet
  facet normal -1 0 0
    outer loop
      vertex 0 0 0
      vertex 0 36 22
      vertex 0 36 0
    endloop
  endfacet
  facet normal -1 -0 0
    outer loop
      vertex 0 36 22
      vertex 0 0 0
      vertex 0 0 22
    endloop
  endfacet
  facet normal 0 1 -0
    outer loop
      vertex 30 38 0
      vertex -3.5 38 22
      vertex 30 38 22
    endloop
  endfacet
  facet normal 0 1 0
    outer loop
      vertex -3.5 38 22
      vertex 30 38 0
      vertex -3.5 38 0
    endloop
  endfacet
  facet normal 0 -1 0
    outer loop
      vertex 17 0 3
      vertex 0 0 22
      vertex 6 0 3
    endloop
  endfacet
  facet normal 0 -1 0
    outer loop
      vertex 0 0 0
      vertex 6 0 3
      vertex 0 0 22
    endloop
  endfacet
  facet normal 0 -1 -0
    outer loop
      vertex 6 0 3
      vertex 0 0 0
      vertex 6 0 0
    endloop
  endfacet
  facet normal 0 -1 0
    outer loop
      vertex 0 0 22
      vertex 17 0 3
      vertex 30 0 22
    endloop
  endfacet
  facet normal 0 -1 0
    outer loop
      vertex 30 0 0
      vertex 17 0 3
      vertex 17 0 0
    endloop
  endfacet
  facet normal 0 -1 0
    outer loop
      vertex 17 0 3
      vertex 30 0 0
      vertex 30 0 22
    endloop
  endfacet
  facet normal -1 0 0
    outer loop
      vertex 28 2 2
      vertex 28 36 22
      vertex 28 36 2
    endloop
  endfacet
  facet normal -1 -0 0
    outer loop
      vertex 28 36 22
      vertex 28 2 2
      vertex 28 2 22
    endloop
  endfacet
  facet normal 0 0 1
    outer loop
      vertex 28 36 2
      vertex 26 30 2
      vertex 28 2 2
    endloop
  endfacet
  facet normal 0 0 1
    outer loop
      vertex 28 36 2
      vertex 24 30 2
      vertex 26 30 2
    endloop
  endfacet
  facet normal 0 0 1
    outer loop
      vertex 24 30 2
      vertex 19.3333 30 2
      vertex 24 8 2
    endloop
  endfacet
  facet normal 0 0 1
    outer loop
      vertex 28 36 2
      vertex 19.3333 30 2
      vertex 24 30 2
    endloop
  endfacet
  facet normal 0 0 1
    outer loop
      vertex 28 36 2
      vertex 17.3333 30 2
      vertex 19.3333 30 2
    endloop
  endfacet
  facet normal 0 0 1
    outer loop
      vertex 12.6667 8 2
      vertex 17.3333 8 2
      vertex 17.3333 30 2
    endloop
  endfacet
  facet normal 0 0 1
    outer loop
      vertex 12.6667 8 2
      vertex 17.3333 30 2
      vertex 12.6667 30 2
    endloop
  endfacet
  facet normal 0 0 1
    outer loop
      vertex 28 36 2
      vertex 12.6667 30 2
      vertex 17.3333 30 2
    endloop
  endfacet
  facet normal -0 0 1
    outer loop
      vertex 2 36 2
      vertex 12.6667 30 2
      vertex 28 36 2
    endloop
  endfacet
  facet normal 0 0 1
    outer loop
      vertex 10.6667 30 2
      vertex 6 30 2
      vertex 10.6667 8 2
    endloop
  endfacet
  facet normal 0 0 1
    outer loop
      vertex 12.6667 30 2
      vertex 2 36 2
      vertex 10.6667 30 2
    endloop
  endfacet
  facet normal 0 0 1
    outer loop
      vertex 10.6667 30 2
      vertex 2 36 2
      vertex 6 30 2
    endloop
  endfacet
  facet normal 0 0 1
    outer loop
      vertex 4 30 2
      vertex 2 36 2
      vertex 4 8 2
    endloop
  endfacet
  facet normal 0 0 1
    outer loop
      vertex 6 30 2
      vertex 2 36 2
      vertex 4 30 2
    endloop
  endfacet
  facet normal -0 0 1
    outer loop
      vertex 26 8 2
      vertex 28 2 2
      vertex 26 30 2
    endloop
  endfacet
  facet normal -0 0 1
    outer loop
      vertex 24 8 2
      vertex 28 2 2
      vertex 26 8 2
    endloop
  endfacet
  facet normal 0 0 1
    outer loop
      vertex 19.3333 8 2
      vertex 24 8 2
      vertex 19.3333 30 2
    endloop
  endfacet
  facet normal 0 0 1
    outer loop
      vertex 17 3 2
      vertex 24 8 2
      vertex 19.3333 8 2
    endloop
  endfacet
  facet normal 0 0 1
    outer loop
      vertex 17 3 2
      vertex 19.3333 8 2
      vertex 17.3333 8 2
    endloop
  endfacet
  facet normal 0 0 1
    outer loop
      vertex 24 8 2
      vertex 17 3 2
      vertex 28 2 2
    endloop
  endfacet
  facet normal 0 0 1
    outer loop
      vertex 28 2 2
      vertex 17 3 2
      vertex 17 2 2
    endloop
  endfacet
  facet normal 0 0 1
    outer loop
      vertex 17.3333 8 2
      vertex 12.6667 8 2
      vertex 17 3 2
    endloop
  endfacet
  facet normal -0 0 1
    outer loop
      vertex 10.6667 8 2
      vertex 17 3 2
      vertex 12.6667 8 2
    endloop
  endfacet
  facet normal 0 0 1
    outer loop
      vertex 6 8 2
      vertex 10.6667 8 2
      vertex 6 30 2
    endloop
  endfacet
  facet normal 0 0 1
    outer loop
      vertex 6 3 2
      vertex 10.6667 8 2
      vertex 6 8 2
    endloop
  endfacet
  facet normal 0 0 1
    outer loop
      vertex 10.6667 8 2
      vertex 6 3 2
      vertex 17 3 2
    endloop
  endfacet
  facet normal -0 0 1
    outer loop
      vertex 4 8 2
      vertex 6 3 2
      vertex 6 8 2
    endloop
  endfacet
  facet normal 0 0 1
    outer loop
      vertex 2 2 2
      vertex 6 3 2
      vertex 4 8 2
    endloop
  endfacet
  facet normal 0 0 1
    outer loop
      vertex 6 3 2
      vertex 2 2 2
      vertex 6 2 2
    endloop
  endfacet
  facet normal 0 0 1
    outer loop
      vertex 2 2 2
      vertex 4 8 2
      vertex 2 36 2
    endloop
  endfacet
  facet normal 1 -0 0
    outer loop
      vertex 2 2 22
      vertex 2 36 2
      vertex 2 36 22
    endloop
  endfacet
  facet normal 1 0 0
    outer loop
      vertex 2 36 2
      vertex 2 2 22
      vertex 2 2 2
    endloop
  endfacet
  facet normal 0 -1 0
    outer loop
      vertex 2 36 2
      vertex 28 36 22
      vertex 2 36 22
    endloop
  endfacet
  facet normal 0 -1 -0
    outer loop
      vertex 28 36 22
      vertex 2 36 2
      vertex 28 36 2
    endloop
  endfacet
  facet normal 0 1 0
    outer loop
      vertex 28 2 22
      vertex 17 2 3
      vertex 2 2 22
    endloop
  endfacet
  facet normal 0 1 -0
    outer loop
      vertex 28 2 2
      vertex 17 2 3
      vertex 28 2 22
    endloop
  endfacet
  facet normal 0 1 0
    outer loop
      vertex 17 2 3
      vertex 28 2 2
      vertex 17 2 2
    endloop
  endfacet
  facet normal 0 1 -0
    outer loop
      vertex 6 2 3
      vertex 2 2 22
      vertex 17 2 3
    endloop
  endfacet
  facet normal 0 1 0
    outer loop
      vertex 2 2 2
      vertex 6 2 3
      vertex 6 2 2
    endloop
  endfacet
  facet normal 0 1 0
    outer loop
      vertex 6 2 3
      vertex 2 2 2
      vertex 2 2 22
    endloop
  endfacet
  facet normal -1 0 0
    outer loop
      vertex 6 8 0
      vertex 6 30 2
      vertex 6 30 0
    endloop
  endfacet
  facet normal -1 -0 0
    outer loop
      vertex 6 30 2
      vertex 6 8 0
      vertex 6 8 2
    endloop
  endfacet
  facet normal 1 -0 0
    outer loop
      vertex 4 8 2
      vertex 4 30 0
      vertex 4 30 2
    endloop
  endfacet
  facet normal 1 0 0
    outer loop
      vertex 4 30 0
      vertex 4 8 2
      vertex 4 8 0
    endloop
  endfacet
  facet normal 0 -1 0
    outer loop
      vertex 4 30 0
      vertex 6 30 2
      vertex 4 30 2
    endloop
  endfacet
  facet normal 0 -1 -0
    outer loop
      vertex 6 30 2
      vertex 4 30 0
      vertex 6 30 0
    endloop
  endfacet
  facet normal 0 1 -0
    outer loop
      vertex 6 8 0
      vertex 4 8 2
      vertex 6 8 2
    endloop
  endfacet
  facet normal 0 1 0
    outer loop
      vertex 4 8 2
      vertex 6 8 0
      vertex 4 8 0
    endloop
  endfacet
  facet normal -1 0 0
    outer loop
      vertex 12.6667 8 0
      vertex 12.6667 30 2
      vertex 12.6667 30 0
    endloop
  endfacet
  facet normal -1 -0 0
    outer loop
      vertex 12.6667 30 2
      vertex 12.6667 8 0
      vertex 12.6667 8 2
    endloop
  endfacet
  facet normal 1 -0 0
    outer loop
      vertex 10.6667 8 2
      vertex 10.6667 30 0
      vertex 10.6667 30 2
    endloop
  endfacet
  facet normal 1 0 0
    outer loop
      vertex 10.6667 30 0
      vertex 10.6667 8 2
      vertex 10.6667 8 0
    endloop
  endfacet
  facet normal 0 -1 0
    outer loop
      vertex 10.6667 30 0
      vertex 12.6667 30 2
      vertex 10.6667 30 2
    endloop
  endfacet
  facet normal 0 -1 -0
    outer loop
      vertex 12.6667 30 2
      vertex 10.6667 30 0
      vertex 12.6667 30 0
    endloop
  endfacet
  facet normal 0 1 -0
    outer loop
      vertex 12.6667 8 0
      vertex 10.6667 8 2
      vertex 12.6667 8 2
    endloop
  endfacet
  facet normal 0 1 0
    outer loop
      vertex 10.6667 8 2
      vertex 12.6667 8 0
      vertex 10.6667 8 0
    endloop
  endfacet
  facet normal -1 0 0
    outer loop
      vertex 19.3333 8 0
      vertex 19.3333 30 2
      vertex 19.3333 30 0
    endloop
  endfacet
  facet normal -1 -0 0
    outer loop
      vertex 19.3333 30 2
      vertex 19.3333 8 0
      vertex 19.3333 8 2
    endloop
  endfacet
  facet normal 1 -0 0
    outer loop
      vertex 17.3333 8 2
      vertex 17.3333 30 0
      vertex 17.3333 30 2
    endloop
  endfacet
  facet normal 1 0 0
    outer loop
      vertex 17.3333 30 0
      vertex 17.3333 8 2
      vertex 17.3333 8 0
    endloop
  endfacet
  facet normal 0 -1 0
    outer loop
      vertex 17.3333 30 0
      vertex 19.3333 30 2
      vertex 17.3333 30 2
    endloop
  endfacet
  facet normal 0 -1 -0
    outer loop
      vertex 19.3333 30 2
      vertex 17.3333 30 0
      vertex 19.3333 30 0
    endloop
  endfacet
  facet normal 0 1 -0
    outer loop
      vertex 19.3333 8 0
      vertex 17.3333 8 2
      vertex 19.3333 8 2
    endloop
  endfacet
  facet normal 0 1 0
    outer loop
      vertex 17.3333 8 2
      vertex 19.3333 8 0
      vertex 17.3333 8 0
    endloop
  endfacet
  facet normal -1 0 0
    outer loop
      vertex 26 8 0
      vertex 26 30 2
      vertex 26 30 0
    endloop
  endfacet
  facet normal -1 -0 0
    outer loop
      vertex 26 30 2
      vertex 26 8 0
      vertex 26 8 2
    endloop
  endfacet
  facet normal 1 -0 0
    outer loop
      vertex 24 8 2
      vertex 24 30 0
      vertex 24 30 2
    endloop
  endfacet
  facet normal 1 0 0
    outer loop
      vertex 24 30 0
      vertex 24 8 2
      vertex 24 8 0
    endloop
  endfacet
  facet normal 0 -1 0
    outer loop
      vertex 24 30 0
      vertex 26 30 2
      vertex 24 30 2
    endloop
  endfacet
  facet normal 0 -1 -0
    outer loop
      vertex 26 30 2
      vertex 24 30 0
      vertex 26 30 0
    endloop
  endfacet
  facet normal 0 1 -0
    outer loop
      vertex 26 8 0
      vertex 24 8 2
      vertex 26 8 2
    endloop
  endfacet
  facet normal 0 1 0
    outer loop
      vertex 24 8 2
      vertex 26 8 0
      vertex 24 8 0
    endloop
  endfacet
  facet normal -1 0 0
    outer loop
      vertex 17 3 0
      vertex 17 2 2
      vertex 17 3 2
    endloop
  endfacet
  facet normal -1 0 0
    outer loop
      vertex 17 0 0
      vertex 17 2 2
      vertex 17 3 0
    endloop
  endfacet
  facet normal -1 0 0
    outer loop
      vertex 17 0 3
      vertex 17 2 2
      vertex 17 0 0
    endloop
  endfacet
  facet normal -1 0 0
    outer loop
      vertex 17 2 2
      vertex 17 0 3
      vertex 17 2 3
    endloop
  endfacet
  facet normal 0 0 -1
    outer loop
      vertex 6 0 3
      vertex 17 2 3
      vertex 17 0 3
    endloop
  endfacet
  facet normal -0 0 -1
    outer loop
      vertex 17 2 3
      vertex 6 0 3
      vertex 6 2 3
    endloop
  endfacet
  facet normal 1 0 0
    outer loop
      vertex 6 2 3
      vertex 6 0 3
      vertex 6 2 2
    endloop
  endfacet
  facet normal 1 -0 0
    outer loop
      vertex 6 2 2
      vertex 6 3 0
      vertex 6 3 2
    endloop
  endfacet
  facet normal 1 0 0
    outer loop
      vertex 6 0 0
      vertex 6 2 2
      vertex 6 0 3
    endloop
  endfacet
  facet normal 1 0 0
    outer loop
      vertex 6 2 2
      vertex 6 0 0
      vertex 6 3 0
    endloop
  endfacet
  facet normal 0 -1 0
    outer loop
      vertex 6 3 0
      vertex 17 3 2
      vertex 6 3 2
    endloop
  endfacet
  facet normal 0 -1 -0
    outer loop
      vertex 17 3 2
      vertex 6 3 0
      vertex 17 3 0
    endloop
  endfacet
  facet normal 1 -0 0
    outer loop
      vertex 30 -48 2
      vertex 30 -10 0
      vertex 30 -10 2
    endloop
  endfacet
  facet normal 1 0 0
    outer loop
      vertex 30 -10 0
      vertex 30 -48 2
      vertex 30 -48 0
    endloop
  endfacet
  facet normal 0 0 1
    outer loop
      vertex 24.5 -33 2
      vertex 26 -14 2
      vertex 24.5 -18 2
    endloop
  endfacet
  facet normal 0 0 1
    outer loop
      vertex 26 -14 2
      vertex 5.5 -18 2
      vertex 24.5 -18 2
    endloop
  endfacet
  facet normal 0 0 1
    outer loop
      vertex 5.5 -18 2
      vertex 4 -14 2
      vertex 5.5 -33 2
    endloop
  endfacet
  facet normal -0 0 1
    outer loop
      vertex 4 -14 2
      vertex 5.5 -18 2
      vertex 26 -14 2
    endloop
  endfacet
  facet normal 0 0 1
    outer loop
      vertex 26 -14 2
      vertex 24.5 -33 2
      vertex 26 -44 2
    endloop
  endfacet
  facet normal -0 0 1
    outer loop
      vertex 5.5 -33 2
      vertex 26 -44 2
      vertex 24.5 -33 2
    endloop
  endfacet
  facet normal 0 0 1
    outer loop
      vertex 5.5 -33 2
      vertex 4 -44 2
      vertex 26 -44 2
    endloop
  endfacet
  facet normal 0 0 1
    outer loop
      vertex 4 -44 2
      vertex 5.5 -33 2
      vertex 4 -14 2
    endloop
  endfacet
  facet normal 0 0 1
    outer loop
      vertex 30 -10 2
      vertex 28 -12 2
      vertex 30 -48 2
    endloop
  endfacet
  facet normal 0 0 1
    outer loop
      vertex 30 -10 2
      vertex 2 -12 2
      vertex 28 -12 2
    endloop
  endfacet
  facet normal 0 0 1
    outer loop
      vertex 2 -12 2
      vertex 0 -10 2
      vertex 2 -46 2
    endloop
  endfacet
  facet normal -0 0 1
    outer loop
      vertex 0 -10 2
      vertex 2 -12 2
      vertex 30 -10 2
    endloop
  endfacet
  facet normal -0 0 1
    outer loop
      vertex 28 -46 2
      vertex 30 -48 2
      vertex 28 -12 2
    endloop
  endfacet
  facet normal -0 0 1
    outer loop
      vertex 2 -46 2
      vertex 30 -48 2
      vertex 28 -46 2
    endloop
  endfacet
  facet normal 0 0 1
    outer loop
      vertex 2 -46 2
      vertex 0 -48 2
      vertex 30 -48 2
    endloop
  endfacet
  facet normal 0 0 1
    outer loop
      vertex 0 -48 2
      vertex 2 -46 2
      vertex 0 -10 2
    endloop
  endfacet
  facet normal 0 0 -1
    outer loop
      vertex 30 -48 0
      vertex 24.5 -33 0
      vertex 30 -10 0
    endloop
  endfacet
  facet normal 0 0 -1
    outer loop
      vertex 30 -48 0
      vertex 5.5 -33 0
      vertex 24.5 -33 0
    endloop
  endfacet
  facet normal 0 0 -1
    outer loop
      vertex 0 -10 0
      vertex 5.5 -33 0
      vertex 0 -48 0
    endloop
  endfacet
  facet normal 0 0 -1
    outer loop
      vertex 0 -48 0
      vertex 5.5 -33 0
      vertex 30 -48 0
    endloop
  endfacet
  facet normal 0 0 -1
    outer loop
      vertex 24.5 -18 0
      vertex 30 -10 0
      vertex 24.5 -33 0
    endloop
  endfacet
  facet normal 0 0 -1
    outer loop
      vertex 5.5 -18 0
      vertex 30 -10 0
      vertex 24.5 -18 0
    endloop
  endfacet
  facet normal 0 0 -1
    outer loop
      vertex 5.5 -18 0
      vertex 0 -10 0
      vertex 30 -10 0
    endloop
  endfacet
  facet normal 0 0 -1
    outer loop
      vertex 5.5 -33 0
      vertex 0 -10 0
      vertex 5.5 -18 0
    endloop
  endfacet
  facet normal -1 0 0
    outer loop
      vertex 0 -48 0
      vertex 0 -10 2
      vertex 0 -10 0
    endloop
  endfacet
  facet normal -1 -0 0
    outer loop
      vertex 0 -10 2
      vertex 0 -48 0
      vertex 0 -48 2
    endloop
  endfacet
  facet normal 0 1 -0
    outer loop
      vertex 30 -10 0
      vertex 0 -10 2
      vertex 30 -10 2
    endloop
  endfacet
  facet normal 0 1 0
    outer loop
      vertex 0 -10 2
      vertex 30 -10 0
      vertex 0 -10 0
    endloop
  endfacet
  facet normal 0 -1 0
    outer loop
      vertex 0 -48 0
      vertex 30 -48 2
      vertex 0 -48 2
    endloop
  endfacet
  facet normal 0 -1 -0
    outer loop
      vertex 30 -48 2
      vertex 0 -48 0
      vertex 30 -48 0
    endloop
  endfacet
  facet normal -1 0 0
    outer loop
      vertex 24.5 -33 0
      vertex 24.5 -18 2
      vertex 24.5 -18 0
    endloop
  endfacet
  facet normal -1 -0 0
    outer loop
      vertex 24.5 -18 2
      vertex 24.5 -33 0
      vertex 24.5 -33 2
    endloop
  endfacet
  facet normal 1 -0 0
    outer loop
      vertex 5.5 -33 2
      vertex 5.5 -18 0
      vertex 5.5 -18 2
    endloop
  endfacet
  facet normal 1 0 0
    outer loop
      vertex 5.5 -18 0
      vertex 5.5 -33 2
      vertex 5.5 -33 0
    endloop
  endfacet
  facet normal 0 -1 0
    outer loop
      vertex 5.5 -18 0
      vertex 24.5 -18 2
      vertex 5.5 -18 2
    endloop
  endfacet
  facet normal 0 -1 -0
    outer loop
      vertex 24.5 -18 2
      vertex 5.5 -18 0
      vertex 24.5 -18 0
    endloop
  endfacet
  facet normal 0 1 -0
    outer loop
      vertex 24.5 -33 0
      vertex 5.5 -33 2
      vertex 24.5 -33 2
    endloop
  endfacet
  facet normal 0 1 0
    outer loop
      vertex 5.5 -33 2
      vertex 24.5 -33 0
      vertex 5.5 -33 0
    endloop
  endfacet
  facet normal 1 -0 0
    outer loop
      vertex 28 -46 4
      vertex 28 -12 2
      vertex 28 -12 4
    endloop
  endfacet
  facet normal 1 0 0
    outer loop
      vertex 28 -12 2
      vertex 28 -46 4
      vertex 28 -46 2
    endloop
  endfacet
  facet normal 0 0 1
    outer loop
      vertex 28 -12 4
      vertex 26 -14 4
      vertex 28 -46 4
    endloop
  endfacet
  facet normal 0 0 1
    outer loop
      vertex 28 -12 4
      vertex 4 -14 4
      vertex 26 -14 4
    endloop
  endfacet
  facet normal 0 0 1
    outer loop
      vertex 4 -14 4
      vertex 2 -12 4
      vertex 4 -44 4
    endloop
  endfacet
  facet normal -0 0 1
    outer loop
      vertex 2 -12 4
      vertex 4 -14 4
      vertex 28 -12 4
    endloop
  endfacet
  facet normal -0 0 1
    outer loop
      vertex 26 -44 4
      vertex 28 -46 4
      vertex 26 -14 4
    endloop
  endfacet
  facet normal -0 0 1
    outer loop
      vertex 4 -44 4
      vertex 28 -46 4
      vertex 26 -44 4
    endloop
  endfacet
  facet normal 0 0 1
    outer loop
      vertex 4 -44 4
      vertex 2 -46 4
      vertex 28 -46 4
    endloop
  endfacet
  facet normal 0 0 1
    outer loop
      vertex 2 -46 4
      vertex 4 -44 4
      vertex 2 -12 4
    endloop
  endfacet
  facet normal -1 0 0
    outer loop
      vertex 2 -46 2
      vertex 2 -12 4
      vertex 2 -12 2
    endloop
  endfacet
  facet normal -1 -0 0
    outer loop
      vertex 2 -12 4
      vertex 2 -46 2
      vertex 2 -46 4
    endloop
  endfacet
  facet normal 0 1 -0
    outer loop
      vertex 28 -12 2
      vertex 2 -12 4
      vertex 28 -12 4
    endloop
  endfacet
  facet normal 0 1 0
    outer loop
      vertex 2 -12 4
      vertex 28 -12 2
      vertex 2 -12 2
    endloop
  endfacet
  facet normal 0 -1 0
    outer loop
      vertex 2 -46 2
      vertex 28 -46 4
      vertex 2 -46 4
    endloop
  endfacet
  facet normal 0 -1 -0
    outer loop
      vertex 28 -46 4
      vertex 2 -46 2
      vertex 28 -46 2
    endloop
  endfacet
  facet normal -1 0 0
    outer loop
      vertex 26 -44 2
      vertex 26 -14 4
      vertex 26 -14 2
    endloop
  endfacet
  facet normal -1 -0 0
    outer loop
      vertex 26 -14 4
      vertex 26 -44 2
      vertex 26 -44 4
    endloop
  endfacet
  facet normal 1 -0 0
    outer loop
      vertex 4 -44 4
      vertex 4 -14 2
      vertex 4 -14 4
    endloop
  endfacet
  facet normal 1 0 0
    outer loop
      vertex 4 -14 2
      vertex 4 -44 4
      vertex 4 -44 2
    endloop
  endfacet
  facet normal 0 -1 0
    outer loop
      vertex 4 -14 2
      vertex 26 -14 4
      vertex 4 -14 4
    endloop
  endfacet
  facet normal 0 -1 -0
    outer loop
      vertex 26 -14 4
      vertex 4 -14 2
      vertex 26 -14 2
    endloop
  endfacet
  facet normal 0 1 -0
    outer loop
      vertex 26 -44 2
      vertex 4 -44 4
      vertex 26 -44 4
    endloop
  endfacet
  facet normal 0 1 0
    outer loop
      vertex 4 -44 4
      vertex 26 -44 2
      vertex 4 -44 2
    endloop
  endfacet
  facet normal 1 -0 0
    outer loop
      vertex -1.5 28 22
      vertex -1.5 36 0
      vertex -1.5 36 22
    endloop
  endfacet
  facet normal 1 0 0
    outer loop
      vertex -1.5 36 0
      vertex -1.5 28 22
      vertex -1.5 28 0
    endloop
  endfacet
  facet normal 0 -1 0
    outer loop
      vertex -1.5 36 0
      vertex 0 36 22
      vertex -1.5 36 22
    endloop
  endfacet
  facet normal 0 -1 -0
    outer loop
      vertex 0 36 22
      vertex -1.5 36 0
      vertex 0 36 0
    endloop
  endfacet
  facet normal -1 0 0
    outer loop
      vertex -3.5 28 0
      vertex -3.5 38 22
      vertex -3.5 38 0
    endloop
  endfacet
  facet normal -1 -0 0
    outer loop
      vertex -3.5 38 22
      vertex -3.5 28 0
      vertex -3.5 28 22
    endloop
  endfacet
  facet normal 0 -1 0
    outer loop
      vertex -3.5 28 0
      vertex -1.5 28 22
      vertex -3.5 28 22
    endloop
  endfacet
  facet normal 0 -1 -0
    outer loop
      vertex -1.5 28 22
      vertex -3.5 28 0
      vertex -1.5 28 0
    endloop
  endfacet
endsolid OpenSCAD_Model
